<svg id="Layer_1" data-name="Layer 1" xmlns="http://www.w3.org/2000/svg" viewBox="0 0 482.74 142.01"><defs><style>.cls-1{fill:#fff;}.cls-2{fill:#005daa;}.cls-3{fill:#e31937;}</style></defs><path class="cls-1" d="M525,324.43c-8.25-10-22.79-15.72-39.91-15.72-18.08,0-34.4,6.1-45.68,16.07,1-6.23,1.83-11.46,1.83-11.46l-4.9-1.45a78.65,78.65,0,0,0-22.24-3.16,65.55,65.55,0,0,0-35.76,10.66l2.9-9.54H302.88l-.92,3.05a61.6,61.6,0,0,0-23.27-4.17c-16.12,0-33.59,6.23-42.67,18.28-.59-.87-1.22-1.73-1.9-2.56-8.25-10-22.8-15.72-39.91-15.72-17.56,0-33.46,5.77-44.69,15.23,1.94-11.78,4.37-26.57,4.37-26.57l-5-1.44a99.82,99.82,0,0,0-27.29-3.75c-34.35,0-65.61,21.83-71.17,49.7a38.23,38.23,0,0,0,7.77,32.34c6.29,7.67,15.59,13.14,26.62,15.94h-34v43.52H224.16s.19-.39.27-.53c0,.09,0,.53,0,.53h20.87l2.83-4.61-.88,4.61h47.18l.68-3.61c4.15,2.68,9.54,4.12,15.73,4.12A36.09,36.09,0,0,0,326,431l-.51,2.67h66.15l.11-.57a43.25,43.25,0,0,0,9.37,1.08,33,33,0,0,0,5.72-.51H432l1.87-4h1.68c.18,1.35.51,4,.51,4h77.78l3.87-20.36H516.3c.26-1.39.36-1.89.53-2.8h1l3.87-20.36h-2.09a10.86,10.86,0,0,0,3.41-6,9.32,9.32,0,0,0-2-7.7,10,10,0,0,0-1.52-1.46,44.5,44.5,0,0,0,12.08-22.64C533.69,341.84,531.39,332.16,525,324.43ZM480.6,343.68c3.19,0,5.65.85,6.93,2.39a5.4,5.4,0,0,1,.88,4.5c-1,5.25-6.41,8.92-13.12,8.92-3.27,0-5.85-.87-7.09-2.37a5,5,0,0,1-.76-4.33C468.32,348.26,473.12,343.68,480.6,343.68Zm-56.25,6.52c-.24,1.26-.42,2.51-.54,3.74-5.25,3.51-10.17,5.17-15.42,5.17-3.56,0-6.64-1.16-8.25-3.11a4.32,4.32,0,0,1-.94-3.78c.94-4.85,7.51-9.1,14.08-9.1A18.66,18.66,0,0,1,425,347.5C424.75,348.39,424.53,349.29,424.35,350.2Zm5.32,40-2.56,4.21L425,393.18a26,26,0,0,0-4.38-1.93,28.57,28.57,0,0,0,3-.9l3-1.08s1.35-5.94,2.92-12.81q.58.81,1.23,1.59c4.42,5.37,10.8,9.47,18.51,12.11H429.67Zm26,1.77-1,5.36-1.41-6C454,391.55,454.82,391.75,455.64,391.93ZM309.82,344.17c-.87,2.87-2.29,7.52-3.89,12.82a18.78,18.78,0,0,0-3.19-9.3,19.15,19.15,0,0,0-2.7-3.15Zm-28-7.81ZM197.5,350.57c-1,5.25-6.41,8.92-13.12,8.92-3.26,0-5.84-.87-7.08-2.37a4.28,4.28,0,0,1-.91-2.82,8.21,8.21,0,0,1,.15-1.51c.88-4.53,5.68-9.11,13.16-9.11,3.19,0,5.65.85,6.93,2.39A5.36,5.36,0,0,1,197.5,350.57Zm102.87,24.75c-1.93,6.35-3.61,11.89-4.51,14.84H278.5C287.34,387.22,295.3,382.33,300.37,375.32Zm-166.1-28.49c-6.69,4.28-13,6.28-19.79,6.28-5,0-9.3-1.64-11.54-4.38a6.12,6.12,0,0,1-1.34-5.36c1.3-6.52,10-12,19-12,6.06,0,11.68,2.26,17.16,6.9A42.84,42.84,0,0,0,134.27,346.83ZM217.2,384l5.64,2.54A73.49,73.49,0,0,0,233,390.16H222.55l-1.13,2.26c-.07-1.1-.14-2.26-.14-2.26H203.1A65.8,65.8,0,0,0,217.2,384Zm138.19,27.81c1.22-6.4,4.11-21.63,4.11-21.63h-20c2.64-8.69,12.13-40,14-46.12l4.2.16a41.13,41.13,0,0,0-1.82,6.47,33.2,33.2,0,0,0,6.82,28,39.35,39.35,0,0,0,16.64,11.53H361.89l-4.11,21.63Zm122.24,0,3.6-18.91c.82-.1,1.64-.22,2.45-.35L480,411.79ZM494,390.16a70.83,70.83,0,0,0,7.37-2.74,9.22,9.22,0,0,0,1.39,2.33c.12.14.26.27.38.41Zm-361-1.63,3-1.06s1.12-4.77,2.62-11.11c.41.58.83,1.14,1.29,1.69,4.42,5.37,10.8,9.47,18.51,12.11H126.57A44.47,44.47,0,0,0,133,388.53Z" transform="translate(-49.63 -292.18)"/><path class="cls-2" d="M215.81,396l1.2,19h.3a40,40,0,0,1,2.29-5.87L226.16,396h10.65l1.61,19h.3a40.36,40.36,0,0,1,2-5.62l6.4-13.4h14.46l-19.55,31.87H229.94l-1.07-17.33h-.46a28.45,28.45,0,0,1-1.62,4.82l-6.23,12.51H208.73L201.4,396Z" transform="translate(-49.63 -292.18)"/><path class="cls-2" d="M260.6,396H274l-2,10.74h8.53l2-10.74h13.39l-6.06,31.87H276.46l2.1-11.07H270l-2.1,11.07h-13.4Z" transform="translate(-49.63 -292.18)"/><path class="cls-2" d="M335.13,412c-1.94,10.23-12.59,16.36-24.26,16.36s-20-6.13-18.05-16.36c1.9-10,12.68-16.52,24.3-16.52S337,402,335.13,412Zm-28.34.17c-.69,3.63,1.78,6.13,6,6.13s7.63-2.5,8.32-6.13c.64-3.38-1.56-6.21-6-6.21S307.43,408.79,306.79,412.17Z" transform="translate(-49.63 -292.18)"/><path class="cls-2" d="M338.18,396h13.9L348,417.62h11.67l-1.94,10.23H332.12Z" transform="translate(-49.63 -292.18)"/><path class="cls-2" d="M392.52,416.44l.62.47a13.73,13.73,0,0,0,8.12,2.91c1.37,0,3.64-.46,3.91-1.9s-1.53-1.56-2.76-1.78l-2.7-.42c-5.28-.8-9.34-3.47-8.39-8.45,1.44-7.57,10.51-11.79,18.83-11.79a23.2,23.2,0,0,1,11.59,2.78l-5.3,8.16a14,14,0,0,0-7.61-2.41c-1.22,0-3.07.38-3.32,1.7s1.47,1.35,2.5,1.56l3,.59c5.68,1.1,9.44,3.72,8.41,9.13C418,424.6,409,428.36,400.7,428.36a36,36,0,0,1-14.16-2.92Z" transform="translate(-49.63 -292.18)"/><path class="cls-2" d="M440.28,416.31l-.56-5.62a35,35,0,0,1-.13-4.1h-.51l-4.39,9.72Zm-12.11,11.54H413.46L432.81,396h15.37l7.59,31.87H441.06l-.52-4H430Z" transform="translate(-49.63 -292.18)"/><path class="cls-2" d="M460.66,396h13.9l-4.11,21.64h11.67l-1.95,10.23H454.61Z" transform="translate(-49.63 -292.18)"/><path class="cls-2" d="M488.82,396h25.72l-1.66,8.71H501.16l-.58,3h10.71L509.71,416H499l-.59,3.13h12.12l-1.66,8.7H482.76Z" transform="translate(-49.63 -292.18)"/><path class="cls-3" d="M300.21,338.7l17.56-.66L303,386.57h31.49L349.26,338l17.15.66,7-23H307.21Z" transform="translate(-49.63 -292.18)"/><path class="cls-3" d="M235,351.3c-4.41,22.76-28.53,36.4-55,36.4s-45.29-13.64-40.89-36.4c4.32-22.28,28.72-36.77,55-36.77S239.33,329,235,351.3Zm-64.2.38c-1.57,8.09,4,13.64,13.56,13.64s17.28-5.55,18.85-13.64c1.45-7.52-3.54-13.83-13.53-13.83S172.27,344.16,170.82,351.68Z" transform="translate(-49.63 -292.18)"/><path class="cls-3" d="M225.23,381.21c9,4,21.15,6.49,32.07,6.49,18.73,0,39.2-8.37,42.47-25.3,2.33-12-6.19-17.87-19-20.31l-6.87-1.32c-2.32-.47-6.16-.85-5.65-3.48.56-2.91,4.75-3.76,7.51-3.76a32,32,0,0,1,17.23,5.36l12-18.15c-7.69-4.23-16.38-6.21-26.27-6.21-18.84,0-39.39,9.41-42.65,26.24-2.15,11.1,7.05,17,19,18.81l6.14.94c2.78.47,6.86.75,6.24,4s-5.76,4.23-8.86,4.23c-7.24,0-13.45-2.92-18.39-6.49l-1.41-1Z" transform="translate(-49.63 -292.18)"/><path class="cls-3" d="M434.7,317.45a73.21,73.21,0,0,0-20.58-2.92c-25.4,0-48.48,16.55-52.49,37.24C357.72,372,374,387.7,398.7,387.7c5.63,0,17.51-.85,22.95-2.83l6.05-26.51c-5.84,4-12.07,6.58-19.31,6.58-9.43,0-16.42-6-14.91-13.82s10.37-13.83,19.8-13.83c7.12,0,12.8,3.29,17.11,7.15Z" transform="translate(-49.63 -292.18)"/><path class="cls-3" d="M485.11,314.53c-26.32,0-50.72,14.49-55,36.77-4.41,22.76,14.44,36.4,40.88,36.4s50.55-13.64,55-36.4C530.23,329,511.43,314.53,485.11,314.53Zm-4.51,23.32c10,0,15,6.31,13.53,13.83-1.57,8.09-9.31,13.64-18.84,13.64s-15.14-5.55-13.57-13.64C463.17,344.16,470.6,337.85,480.6,337.85Z" transform="translate(-49.63 -292.18)"/><path class="cls-3" d="M147.3,301.53A94.14,94.14,0,0,0,121.63,298C90,298,61.16,318,56.17,343c-4.88,24.44,15.41,43.43,46.23,43.43,7,0,21.85-1,28.63-3.41L138.57,351c-7.28,4.89-15.06,8-24.09,8-11.75,0-20.47-7.28-18.59-16.71s12.94-16.71,24.69-16.71c8.89,0,16,4,21.35,8.64Z" transform="translate(-49.63 -292.18)"/><path class="cls-3" d="M506.55,383.12c.47-2.48,3.23-4.47,6.23-4.47s5,2,4.53,4.47-3.25,4.49-6.23,4.49S506.07,385.61,506.55,383.12Zm9.36,0c.38-2-1.06-3.3-3.35-3.3s-4.23,1.3-4.61,3.3,1,3.32,3.35,3.32A4.43,4.43,0,0,0,515.91,383.12ZM514,385.46H512.6l-.88-2h-.91l-.37,2h-1.19l.9-4.69h2.72c1.2,0,1.85.33,1.64,1.44a1.56,1.56,0,0,1-1.51,1.27Zm-1.72-2.88c.59,0,1.1,0,1.19-.5s-.43-.41-1-.41h-1.28l-.17.91Z" transform="translate(-49.63 -292.18)"/><polygon class="cls-2" points="8.74 135.72 156.12 135.72 156.11 135.67 155.99 135.67 154.12 127.57 8.74 127.57 8.74 135.72"/><polygon class="cls-2" points="8.74 124.14 153.33 124.14 151.46 115.99 8.74 115.99 8.74 124.14"/><polygon class="cls-2" points="8.74 112.51 150.61 112.51 149.97 109.53 148.66 103.87 8.74 103.87 8.74 112.51"/><path class="cls-2" d="M366.33,396h25.72l-1.65,8.71H378.68l-.58,3h10.7L387.23,416H376.52l-.59,3.13h12.12l-1.65,8.7H360.27Z" transform="translate(-49.63 -292.18)"/></svg>