<svg xmlns="http://www.w3.org/2000/svg" viewBox="0 0 1800 468" role="img" aria-labelledby="title">
  <title id="title">Sprouts Farmers Market logo</title>
  <path fill="#2a783a" fill-rule="evenodd" clip-rule="evenodd" d="M234 62 L233 48 L230 39 L223 33 L202 29 L202 14 L333 14 L356 17 L375 23 L391 33 L402 44 L412 62 L416 78 L415 109 L405 135 L393 150 L377 162 L345 174 L312 176 L288 170 L288 231 L290 250 L293 256 L298 260 L327 265 L327 280 L199 279 L200 265 L225 260 L230 255 L233 246 Z M1502 34 L1460 33 L1461 247 L1465 256 L1471 260 L1482 263 L1500 264 L1500 280 L1366 280 L1366 264 L1383 263 L1396 259 L1400 255 L1404 243 L1404 33 L1374 33 L1351 38 L1342 46 L1336 57 L1328 85 L1312 85 L1317 4 L1328 4 L1332 10 L1342 14 L1521 14 L1530 11 L1537 4 L1548 4 L1552 84 L1537 85 L1530 60 L1524 48 L1514 38 Z M768 157 L774 146 L785 135 L808 123 L808 125 L802 128 L786 145 L776 164 L771 185 L773 213 L782 233 L794 246 L800 249 L832 257 L861 255 L861 293 L835 293 L815 290 L794 284 L769 272 L753 261 L735 244 L722 227 L710 205 L710 202 L712 203 L715 210 L725 221 L714 196 L710 175 L712 138 L722 106 L745 66 L765 41 L783 24 L780 24 L765 35 L738 64 L719 96 L716 111 L714 111 L713 106 L713 80 L716 64 L724 44 L740 24 L762 10 L794 1 L826 0 L815 13 L807 28 L802 44 L797 78 L789 101 L782 111 L771 121 L752 132 L733 138 L731 143 L731 175 L738 203 L745 218 L757 236 L776 253 L768 243 L762 231 L757 211 L758 181 L762 167 Z M7 100 L7 76 L11 60 L24 38 L43 22 L69 11 L86 8 L122 9 L141 13 L158 20 L165 73 L165 78 L163 79 L150 81 L143 61 L133 45 L117 31 L103 26 L85 26 L74 30 L61 42 L55 58 L55 73 L62 89 L80 105 L125 128 L146 142 L164 160 L173 176 L177 191 L177 215 L175 224 L162 250 L147 265 L124 278 L108 283 L88 286 L51 284 L31 279 L11 271 L2 224 L1 200 L15 197 L26 224 L43 248 L59 261 L79 268 L101 266 L117 255 L124 242 L126 220 L121 205 L106 188 L44 152 L21 131 L11 114 Z M530 242 L534 255 L540 260 L564 264 L564 280 L440 279 L440 265 L455 263 L468 258 L473 251 L475 242 L475 50 L473 42 L468 35 L458 31 L442 29 L442 14 L577 14 L601 17 L615 21 L634 32 L645 43 L653 57 L657 71 L658 88 L652 113 L637 133 L620 145 L607 150 L607 152 L635 202 L664 245 L682 263 L696 269 L694 282 L672 283 L644 279 L631 275 L614 265 L594 240 L561 178 L555 171 L544 166 L530 166 Z M861 6 L848 2 L848 0 L861 1 Z M1070 257 L1064 251 L1054 233 L1046 203 L1044 182 L1043 47 L1040 39 L1035 34 L1027 31 L1010 29 L1010 14 L1134 14 L1134 29 L1117 31 L1109 34 L1104 39 L1101 47 L1100 179 L1105 208 L1117 234 L1127 245 L1136 251 L1157 257 L1174 257 L1189 254 L1208 243 L1218 231 L1226 215 L1233 184 L1234 83 L1230 49 L1227 42 L1219 35 L1208 31 L1191 29 L1191 14 L1294 14 L1294 29 L1279 31 L1268 36 L1260 48 L1256 79 L1256 166 L1253 198 L1243 232 L1226 257 L1213 268 L1199 276 L1179 283 L1159 286 L1140 286 L1113 282 L1090 273 L1079 266 Z M1697 198 L1677 181 L1644 164 L1618 147 L1601 130 L1589 106 L1587 93 L1588 74 L1594 55 L1601 43 L1622 23 L1633 17 L1654 10 L1667 8 L1703 9 L1722 13 L1737 18 L1739 21 L1746 78 L1731 81 L1726 66 L1713 44 L1698 31 L1684 26 L1666 26 L1649 34 L1640 45 L1637 53 L1636 74 L1642 88 L1654 100 L1671 111 L1711 131 L1728 143 L1744 159 L1753 174 L1758 192 L1758 213 L1755 227 L1745 247 L1729 264 L1705 278 L1684 284 L1649 286 L1615 280 L1592 271 L1589 260 L1581 210 L1582 200 L1594 196 L1596 197 L1600 210 L1611 231 L1622 246 L1634 257 L1651 266 L1673 268 L1682 266 L1694 259 L1704 244 L1707 222 L1705 212 Z M1799 18 L1800 41 L1795 41 L1794 25 L1789 40 L1783 40 L1779 27 L1778 40 L1773 41 L1774 18 L1782 18 L1786 32 L1791 18 Z M576 39 L571 35 L555 31 L539 32 L531 37 L530 149 L557 148 L571 144 L587 131 L594 119 L599 95 L597 70 L588 49 Z M315 32 L296 32 L291 35 L288 45 L288 152 L300 156 L318 156 L337 147 L348 134 L356 110 L356 74 L348 52 L336 39 L329 35 Z M864 292 L863 292 L863 255 L864 255 Z M1772 18 L1771 23 L1765 23 L1765 41 L1761 41 L1760 22 L1754 23 L1753 18 Z"/>
  <path fill="#6bbd45" fill-rule="evenodd" clip-rule="evenodd" d="M342 353 L333 353 L330 356 L330 406 L346 405 L353 402 L361 393 L363 386 L363 372 L359 361 L350 354 Z M1041 457 L1044 455 L1046 448 L1045 368 L1003 464 L997 464 L959 370 L956 446 L960 456 L973 458 L973 465 L928 465 L928 459 L941 455 L944 448 L951 372 L950 357 L945 353 L935 352 L935 344 L971 345 L1007 428 L1009 428 L1045 346 L1047 344 L1082 345 L1082 352 L1071 353 L1067 356 L1066 383 L1069 453 L1073 457 L1084 458 L1084 465 L1031 465 L1031 458 Z M900 239 L911 232 L923 220 L939 195 L947 172 L950 156 L950 120 L942 88 L924 55 L896 26 L873 11 L864 8 L864 1 L892 7 L909 14 L927 24 L944 37 L965 60 L975 76 L984 96 L991 124 L992 161 L987 188 L980 208 L971 226 L960 242 L940 262 L919 276 L896 286 L864 292 L864 254 L883 249 Z M831 412 L817 404 L806 391 L803 374 L808 359 L819 348 L835 342 L854 342 L870 346 L873 374 L866 375 L859 358 L852 352 L846 350 L837 350 L830 353 L824 361 L823 371 L829 383 L860 400 L873 412 L879 427 L879 435 L875 448 L863 461 L849 467 L826 468 L806 462 L800 434 L800 430 L806 428 L816 448 L828 458 L842 460 L850 457 L855 452 L857 447 L857 433 L855 429 L847 421 Z M1414 408 L1443 446 L1454 456 L1464 458 L1464 465 L1429 465 L1384 407 L1381 407 L1381 450 L1384 456 L1397 458 L1397 465 L1344 465 L1344 458 L1356 456 L1359 450 L1359 359 L1354 353 L1343 352 L1343 345 L1396 344 L1396 352 L1384 354 L1381 360 L1381 400 L1383 400 L1403 383 L1424 358 L1423 353 L1414 352 L1414 344 L1461 344 L1461 352 L1446 354 L1436 360 L1403 393 Z M1511 353 L1509 354 L1509 398 L1537 397 L1541 392 L1542 385 L1549 384 L1550 421 L1542 422 L1540 412 L1533 408 L1509 408 L1510 452 L1512 455 L1520 457 L1547 455 L1557 444 L1561 433 L1564 433 L1568 434 L1568 440 L1562 465 L1469 465 L1469 458 L1481 457 L1486 452 L1486 358 L1482 353 L1471 352 L1471 345 L1557 344 L1559 373 L1552 374 L1548 361 L1540 354 Z M1274 353 L1265 353 L1262 356 L1262 406 L1284 403 L1292 395 L1295 386 L1295 372 L1291 361 L1280 353 Z M430 359 L425 353 L414 352 L415 344 L451 345 L488 428 L525 345 L561 344 L561 352 L550 353 L546 357 L546 396 L548 451 L553 457 L563 458 L564 465 L510 465 L511 458 L520 457 L525 452 L525 367 L483 464 L477 464 L475 460 L440 371 L438 370 L436 450 L442 457 L453 458 L453 465 L408 465 L408 458 L417 457 L423 451 L428 406 Z M771 465 L762 461 L754 453 L735 419 L729 414 L719 414 L719 451 L724 457 L734 458 L735 465 L681 465 L681 458 L693 456 L697 448 L697 361 L694 354 L681 351 L682 344 L747 345 L764 351 L771 358 L776 370 L775 386 L771 394 L763 402 L753 408 L778 448 L788 458 L795 460 L794 467 Z M1224 465 L1224 458 L1235 457 L1240 450 L1240 359 L1235 353 L1225 352 L1225 344 L1279 344 L1296 346 L1306 350 L1313 356 L1318 365 L1319 383 L1312 397 L1296 408 L1322 449 L1330 457 L1338 460 L1337 467 L1318 466 L1304 460 L1292 445 L1277 417 L1272 414 L1262 414 L1262 448 L1264 455 L1267 457 L1278 458 L1278 465 Z M613 398 L639 398 L644 394 L647 384 L654 385 L654 422 L646 422 L645 414 L641 409 L613 408 L613 447 L614 452 L619 456 L648 456 L658 449 L665 433 L672 434 L666 465 L573 465 L573 458 L585 457 L590 452 L590 357 L586 353 L576 352 L575 345 L661 344 L663 373 L659 374 L656 374 L651 359 L644 354 L615 353 L613 355 Z M292 346 L293 344 L359 345 L370 348 L380 355 L387 369 L387 383 L383 393 L374 402 L364 408 L390 449 L398 457 L406 460 L405 467 L386 466 L372 460 L363 450 L346 419 L340 414 L330 414 L330 450 L333 456 L346 458 L346 465 L292 465 L292 458 L303 457 L308 450 L308 360 L305 354 L293 352 Z M115 451 L120 457 L132 458 L133 465 L77 465 L77 458 L87 457 L92 451 L92 358 L88 353 L77 352 L77 345 L162 344 L165 367 L164 374 L157 373 L156 366 L148 355 L140 353 L115 354 L115 400 L144 399 L148 396 L151 386 L158 387 L157 424 L150 424 L149 415 L143 410 L115 409 Z M1129 427 L1121 448 L1121 455 L1133 458 L1134 465 L1092 465 L1092 458 L1103 456 L1109 449 L1149 346 L1152 343 L1160 342 L1196 444 L1204 456 L1215 458 L1215 465 L1164 465 L1164 458 L1172 457 L1175 454 L1166 425 L1129 425 Z M1135 410 L1133 414 L1162 414 L1148 374 Z M1672 342 L1674 340 L1680 340 L1682 376 L1674 375 L1671 362 L1665 355 L1657 353 L1639 353 L1639 448 L1643 456 L1657 458 L1658 465 L1599 465 L1599 458 L1613 456 L1617 448 L1617 353 L1591 355 L1585 362 L1582 375 L1574 376 L1576 340 L1582 340 L1585 344 L1671 344 Z M242 454 L243 451 L234 425 L197 425 L190 444 L189 455 L201 458 L201 465 L160 465 L160 458 L171 456 L177 449 L216 348 L218 344 L224 342 L228 343 L268 452 L274 457 L283 458 L283 465 L232 465 L232 458 L240 457 Z M752 373 L749 363 L741 355 L730 352 L720 354 L719 406 L735 405 L742 402 L750 392 Z M212 384 L201 414 L230 414 L216 374 Z M861 255 L863 255 L863 292 L861 292 Z M861 1 L863 1 L863 7 L861 6 Z"/>
</svg>
