<svg width="131" height="24" viewBox="0 0 131 24" fill="none" xmlns="http://www.w3.org/2000/svg" role="img" aria-label="LangSmith">
  <title>LangSmith</title>
  <g fill="#000000">
    <g>
      <path d="M6.64803 14.103C7.89438 12.8566 8.595 11.1643 8.595 9.40177C8.595 7.63928 7.89378 5.94697 6.64803 4.70058L1.94697 0C0.701225 1.24639 0 2.9387 0 4.70119C0 6.46368 0.701225 8.15599 1.94697 9.40238L6.64742 14.103H6.64803Z"/>
      <path d="M16.4845 14.5379C15.2388 13.2921 13.5459 12.5908 11.7841 12.5908C10.0222 12.5908 8.32936 13.2921 7.08301 14.5379L11.7841 19.239C13.0298 20.4848 14.7227 21.1861 16.4851 21.1861C18.2476 21.1861 19.9398 20.4848 21.1862 19.239L16.4851 14.5379H16.4845Z"/>
      <path d="M1.95832 19.228C3.20468 20.4738 4.89693 21.1751 6.65938 21.1751V14.5269H0.0107422C0.0113472 16.2893 0.711968 17.9817 1.95832 19.228Z"/>
      <path d="M18.2997 7.58717C17.0533 6.34138 15.3611 5.63953 13.598 5.64014C11.8356 5.64014 10.1433 6.34138 8.89697 7.58777L13.598 12.289L18.2997 7.58717Z"/>
    </g>
    <g transform="translate(25.6445 3.56689) scale(0.567586389)">
      <path d="M172.749 7.79809C169.63 7.79809 167.839 9.47674 166.707 11.7766V0.661652H161.795V28.5082H166.823V19.4591C166.823 14.5445 168.657 12.1666 171.345 12.1666C174.23 12.1666 175.01 14.4694 175.01 17.3933V28.5082H180V16.1827C180 11.2305 177.973 7.79809 172.749 7.79809Z"/>
      <path d="M147.76 12.1694H150.994V21.6461C150.994 25.7026 152.398 28.667 157.388 28.589H159.805V24.6105H158.52C156.375 24.6105 155.869 23.2843 155.869 20.944V12.1694H159.924V8.34692H147.76V12.1694Z"/>
      <path d="M155.866 3.79635V0.667297H150.994V7.07564H152.557C154.289 7.07564 155.866 5.5299 155.866 3.79635Z"/>
      <path d="M145.45 28.5082H140.422V11.8372C140.422 9.90723 141.984 8.34415 143.913 8.34415H145.45V28.5082Z"/>
      <path d="M145.528 2.39519H140.344V7.07577H145.528V2.39519Z"/>
      <path d="M130.291 7.80096C127.366 7.80096 125.807 9.16469 124.677 11.583C123.664 8.97111 121.792 7.80096 119.063 7.80096C116.141 7.80096 114.27 9.75121 113.646 11.661V8.34703H108.736V28.5111H113.764V19.462C113.764 15.5239 114.544 12.1695 117.663 12.1695C120.432 12.1695 120.938 14.4722 120.938 17.3961V28.5111H125.772V18.8783C125.772 14.6658 127.291 12.1695 129.63 12.1695C132.125 12.1695 132.905 14.4722 132.905 17.3961V28.5111H137.855V16.1856C137.855 11.2334 135.36 7.80096 130.291 7.80096Z"/>
      <path d="M96.6045 12.3602C93.0178 11.3085 90.7566 10.2539 90.7566 7.95409C90.7566 5.38266 92.8243 4.32809 95.4349 4.32809C98.4383 4.32809 99.9978 5.73226 100.503 8.77464H105.727C105.144 2.61188 101.127 0 95.5533 0C90.4476 0 85.5354 2.53676 85.6133 7.87897C85.6538 13.4177 90.2137 14.9778 94.8141 16.382C98.3632 17.4337 100.818 18.0982 100.818 20.9441C100.818 23.556 98.8311 24.8446 95.7902 24.8446H95.7873C92.4345 24.8446 89.9769 22.9695 89.7834 19.5371H84.4438C84.9116 26.1274 89.7054 29.1698 95.7873 29.1698C100.933 29.1698 105.961 26.87 105.961 20.9413C105.961 15.0125 101.32 13.7239 96.6045 12.3602Z"/>
      <path d="M76.7303 11.1901H76.6928C75.991 9.55185 73.9638 7.79808 70.611 7.79808C65.1529 7.79808 61.2543 11.6206 61.2543 18.0173C61.2543 24.4141 65.1904 28.3146 70.6485 28.3146C74.1168 28.3146 75.9102 26.5984 76.6899 24.6886H76.7274V27.1069C76.7274 30.5393 74.9716 32.1775 71.8152 32.1775C69.1641 32.1775 67.4112 31.2414 66.9434 29.0572H62.0311C62.5769 33.0356 66.2416 36 71.8932 36C77.2328 36 81.9891 33.3072 81.9891 26.4048V8.34704H76.7274V11.1901H76.7303ZM71.7372 24.3766C68.1101 24.3766 66.2792 21.3718 66.2792 18.0578C66.2792 14.7438 68.1505 11.7795 71.7372 11.7795C75.3239 11.7795 77.1953 15.1714 77.1953 18.0578C77.1953 20.9441 75.7138 24.3766 71.7372 24.3766Z"/>
      <path d="M52.0103 7.80096C48.8914 7.80096 47.1009 9.47673 45.9689 11.817V8.34703H41.0566V28.5111H46.0844V19.462C46.0844 14.5474 47.9182 12.1695 50.6068 12.1695C53.4917 12.1695 54.2715 14.4722 54.2715 17.3961V28.5111H59.2617V16.1856C59.2617 11.2334 57.2344 7.80096 52.0103 7.80096Z"/>
      <path d="M37.8974 16.3041C37.8974 11.3491 35.5582 7.72308 29.2425 7.72308C23.9404 7.72308 21.1738 11.1988 20.5876 14.5128H25.3034C25.8117 12.6406 27.2932 11.4704 29.28 11.4704C31.5788 11.4704 32.9822 12.4037 32.9822 14.0043C32.9822 15.7205 31.7347 16.1106 29.1241 16.5006C26.3171 16.9282 19.6895 17.4743 19.6895 23.013C19.6895 26.4049 22.3405 29.0573 26.7445 29.0573C30.5651 29.0573 32.243 27.029 33.0602 25.4313H33.1007V26.4454C33.1007 27.107 33.1411 27.8496 33.2566 28.5112H38.2844C38.01 27.2226 37.8945 25.1568 37.8945 23.5966V16.3041H37.8974ZM33.0631 19.1529C33.0631 23.8335 30.6864 25.3533 28.1133 25.3533C25.8521 25.3533 24.6826 24.2987 24.6826 22.7789C24.6826 21.2592 25.8926 20.4387 28.5812 19.8926C31.5441 19.309 32.5953 18.4133 33.0631 17.4367V19.1529Z"/>
      <path d="M0 0.661636H5.02776V19.303C5.02776 21.2331 3.46543 22.7961 1.53634 22.7961H0V0.661636Z"/>
      <path d="M17.9942 24.0645H0V28.5111H17.9942V24.0645Z"/>
    </g>
  </g>
</svg>
